<svg xmlns="http://www.w3.org/2000/svg" width="900" height="1200" viewBox="0 0 900 1200">
  <!-- placeholder sample artwork — swap for Thomas's own images -->
  <rect width="900" height="1200" fill="#f2ede4"/>
  <!-- 3x4 grid of 300px quarter-arc tiles -->
  <g>
    <path d="M0 0 H300 A300 300 0 0 1 0 300 Z" fill="#e4572e"/>
    <path d="M600 0 A300 300 0 0 1 300 300 H600 Z" fill="#111418"/>
    <path d="M600 0 H900 V300 A300 300 0 0 0 600 0 Z" fill="#2a6f97"/>
    <path d="M0 300 A300 300 0 0 1 300 600 H0 Z" fill="#f4b942"/>
    <circle cx="450" cy="450" r="130" fill="#e4572e"/>
    <path d="M900 300 A300 300 0 0 0 600 600 H900 Z" fill="#111418"/>
    <path d="M0 600 H300 V900 A300 300 0 0 1 0 600 Z" fill="#2a6f97"/>
    <path d="M300 900 A300 300 0 0 1 600 600 V900 Z" fill="#e4572e"/>
    <path d="M600 600 A300 300 0 0 1 900 900 H600 Z" fill="#f4b942"/>
    <path d="M0 900 A300 300 0 0 1 300 1200 H0 Z" fill="#111418"/>
    <path d="M600 900 H300 A300 300 0 0 0 600 1200 Z" fill="#f4b942"/>
    <path d="M900 900 A300 300 0 0 0 600 1200 H900 Z" fill="#2a6f97"/>
    <circle cx="750" cy="150" r="70" fill="#f2ede4"/>
    <circle cx="150" cy="1050" r="70" fill="#e4572e"/>
  </g>
</svg>
